<svg xmlns="http://www.w3.org/2000/svg" width="252" height="136" viewBox="0 0 252 136">
  <g fill="none" fill-rule="evenodd" transform="translate(.41 1)">
    <path fill="#999" fill-rule="nonzero" d="M106.805128,103.2625 C103.203575,112.22541 94.5466369,118.099423 84.9196581,118.1125 L25.8725926,118.1125 C12.8423861,118.1125 2.27931674,107.508028 2.27931674,94.42675 C2.27931674,81.3454717 12.8423861,70.7410003 25.8725926,70.741 L26.2020513,70.741 C26.3163533,70.741 26.4306553,70.741 26.5516809,70.741 L27.5871225,70.741 L27.5871225,69.7015 C27.5805431,58.8676517 33.9797573,49.0632414 43.8765762,44.7439848 C53.7733952,40.4247281 65.279854,42.4145872 73.1667236,49.80925 C73.8390883,49.48525 74.511453,49.20175 75.1838177,48.93175 C66.9690459,40.7538079 54.7091055,38.237784 43.9565008,42.523181 C33.203896,46.8085779 26.001149,57.0813587 25.6103704,68.689 C11.4661534,68.689 2.84217094e-14,80.2000949 2.84217094e-14,94.39975 C2.84217094e-14,108.599405 11.4661534,120.1105 25.6103704,120.1105 L84.96,120.1105 C95.7058147,120.096647 105.304648,113.361635 109.010484,103.2355 L106.805128,103.2625 Z"/>
    <g transform="translate(59.59)">
      <circle cx="29.333" cy="75.2" r="12.8" fill="#AEA79F" fill-rule="nonzero"/>
      <circle cx="99.2" cy="34.027" r="17.493" fill="#E95420" fill-rule="nonzero"/>
      <circle cx="143.467" cy="88" r="16" stroke="#666"/>
      <circle cx="143.467" cy="88" r="8" fill="#666" fill-rule="nonzero"/>
      <path stroke="#666" stroke-linecap="round" stroke-width="3" d="M159.573333,70.5066667 C159.573333,54.5066667 148.266667,40.7466667 132.586667,37.6533333 C132.693333,36.48 132.8,35.3066667 132.8,34.1333333 C132.8,15.5733333 117.76,0.64 99.3066667,0.64 C84.8,0.64 72,9.92 67.52,23.5733333 C55.04,16 38.8266667,19.9466667 31.36,32.4266667 C28.9066667,36.5866667 27.52,41.28 27.52,46.08 L27.52,46.6133333 C11.7333333,47.68 -0.32,61.3333333 0.746666667,77.2266667 C1.70666667,92.3733333 14.2933333,104.106667 29.44,104.106667 L125.866667,104.106667"/>
      <path fill="#666" fill-rule="nonzero" d="M133.333333 76.16C133.226667 76.16 133.013333 76.0533333 132.906667 75.9466667L122.986667 63.7866667 119.36 59.52C119.146667 59.3066667 119.146667 58.9866667 119.466667 58.7733333 119.68 58.56 120 58.56 120.213333 58.88L123.84 63.1466667 133.76 75.3066667C133.973333 75.52 133.866667 75.84 133.653333 76.0533333 133.546667 76.16 133.44 76.16 133.333333 76.16zM29.3333333 103.36C13.8666667 103.36 1.17333333 90.6666667 1.17333333 75.2 1.17333333 59.7333333 13.8666667 47.04 29.3333333 47.04 44.8 47.04 57.4933333 59.7333333 57.4933333 75.2 57.4933333 90.6666667 44.8 103.36 29.3333333 103.36zM29.3333333 48.1066667C14.4 48.1066667 2.24 60.2666667 2.24 75.2 2.24 90.1333333 14.4 102.293333 29.3333333 102.293333 44.2666667 102.293333 56.4266667 90.1333333 56.4266667 75.2 56.4266667 60.2666667 44.2666667 48.1066667 29.3333333 48.1066667z"/>
      <path fill="#666" fill-rule="nonzero" d="M99.2,66.88 C81.0666667,66.88 66.3466667,52.16 66.3466667,34.0266667 C66.3466667,15.8933333 81.0666667,1.06666667 99.2,1.06666667 C117.333333,1.06666667 132.053333,15.7866667 132.053333,33.92 C132.053333,52.16 117.333333,66.88 99.2,66.88 Z M99.2,2.13333333 C81.6,2.13333333 67.4133333,16.4266667 67.4133333,34.0266667 C67.4133333,51.6266667 81.6,65.8133333 99.2,65.8133333 C116.8,65.8133333 130.986667,51.52 130.986667,34.0266667 C130.986667,16.5333333 116.8,2.13333333 99.2,2.13333333 Z"/>
      <path fill="#666" fill-rule="nonzero" d="M53.3333333,61.5466667 C53.12,61.5466667 53.0133333,61.44 52.9066667,61.3333333 C52.8,61.12 52.8,60.8 53.12,60.5866667 L70.72,50.1333333 C70.9333333,50.0266667 71.2533333,50.0266667 71.4666667,50.3466667 C71.5733333,50.56 71.5733333,50.88 71.2533333,51.0933333 L53.6533333,61.5466667 L53.3333333,61.5466667 L53.3333333,61.5466667 Z"/>
    </g>
    <path fill="#FFF" fill-rule="nonzero" d="M194.682735,90.99675 C187.679776,91.0079212 182.008652,96.7103337 182.008661,103.74075 L182.008661,104.96925 L181.047179,105.03675 C173.560648,105.559825 167.832195,111.942359 168.091321,119.471921 C168.350447,127.001483 174.504021,132.971891 182.008661,132.975 L232.69151,132.975 C241.03062,132.699479 247.840379,126.193818 248.527733,117.845962 C249.215087,109.498106 243.561826,101.958192 235.380969,100.31175 L234.473276,100.13625 L234.567407,99.21825 C234.628561,98.6442743 234.65998,98.0674975 234.661538,97.49025 C234.67717,89.4114963 228.844619,82.5181011 220.900864,81.2267363 C212.957109,79.9353716 205.255669,84.628634 202.73094,92.2995 L202.334245,93.5145 L201.245014,92.8395 C199.267829,91.6315155 196.997278,90.9939232 194.682735,90.99675 L194.682735,90.99675 Z"/>
    <path fill="#666" fill-rule="nonzero" d="M182.008661,135 C173.591952,135.001338 166.623016,128.436247 166.089696,120.003529 C165.556375,111.570811 171.642277,104.173593 179.991567,103.10625 C180.192688,98.1129235 182.902171,93.5626125 187.187963,91.0206067 C191.473755,88.4786009 196.751123,88.2917199 201.204672,90.52425 C204.511218,82.3259098 213.143571,77.6321688 221.78982,79.3313158 C230.436069,81.0304627 236.668393,88.6453859 236.651738,97.49025 C236.651738,97.82775 236.651738,98.16525 236.651738,98.523 C245.533745,100.813219 251.392079,109.304918 250.404409,118.457603 C249.416739,127.610287 241.882893,134.645481 232.718405,134.973 L182.008661,135 Z M194.682735,90.99675 C187.679776,91.0079212 182.008652,96.7103337 182.008661,103.74075 L182.008661,104.96925 L181.047179,105.03675 C173.560648,105.559825 167.832195,111.942359 168.091321,119.471921 C168.350447,127.001483 174.504021,132.971891 182.008661,132.975 L232.69151,132.975 C241.03062,132.699479 247.840379,126.193818 248.527733,117.845962 C249.215087,109.498106 243.561826,101.958192 235.380969,100.31175 L234.473276,100.13625 L234.567407,99.21825 C234.628561,98.6442743 234.65998,98.0674975 234.661538,97.49025 C234.67717,89.4114963 228.844619,82.5181011 220.900864,81.2267363 C212.957109,79.9353716 205.255669,84.628634 202.73094,92.2995 L202.334245,93.5145 L201.245014,92.8395 C199.267829,91.6315155 196.997278,90.9939232 194.682735,90.99675 L194.682735,90.99675 Z"/>
  </g>
</svg>
